# xmcd CD database file
#
# Track frame offsets:
#	150
#	13018
#	29834
#	43880
#	60639
#	73525
#	89097
#	109763
#	131630
#	150413
#
# Disc length: 2248 seconds
#
# Revision: 0
# Processed by: cddbd v1.4PL0 Copyright (c) Steve Scherf et al.
# Submitted via: CDex 1.40Release
#
DISCID=8b08c60a
DTITLE=Gringos - Gringos
DYEAR=2003
DGENRE=Country
TTITLE0=LA Is Feeling Gray
TTITLE1=My Heart's In Mexico
TTITLE2=Baby's Going Wild
TTITLE3=Every Now and Then
TTITLE4=White Wine/White Trash
TTITLE5=Love At Home
TTITLE6=Leann
TTITLE7=Elvis and The Colonel
TTITLE8=Working On Trains
TTITLE9=Goin' To Maydelle!
EXTD=YEAR: 2003 ID3G: 2
EXTT0=
EXTT1=
EXTT2=
EXTT3=
EXTT4=
EXTT5=
EXTT6=
EXTT7=
EXTT8=
EXTT9=
PLAYORDER=
